<?xml version="1.0" encoding="UTF-8"?>
<!DOCTYPE svg PUBLIC "-//W3C//DTD SVG 1.1//EN" "http://www.w3.org/Graphics/SVG/1.1/DTD/svg11.dtd">
<svg xmlns="http://www.w3.org/2000/svg" version="1.1" width="1000px" height="1000px" style="shape-rendering:geometricPrecision; text-rendering:geometricPrecision; image-rendering:optimizeQuality; fill-rule:evenodd; clip-rule:evenodd" xmlns:xlink="http://www.w3.org/1999/xlink">
<g><path style="opacity:0.992" fill="#000000" d="M 267.5,33.5 C 325.244,32.6301 381.577,41.1301 436.5,59C 579.592,115.469 660.425,220.302 679,373.5C 682.986,413.347 683.486,453.181 680.5,493C 729.5,493.333 778.5,493.667 827.5,494C 744.656,583.676 661.656,673.176 578.5,762.5C 490.384,673.595 402.717,584.262 315.5,494.5C 369.067,493.831 422.567,493.165 476,492.5C 489.528,387.139 469.861,288.472 417,196.5C 383.587,145.01 336.42,113.843 275.5,103C 223.742,95.212 172.076,95.8787 120.5,105C 99.1537,109.036 78.1537,113.203 57.5,117.5C 117.557,65.1546 187.557,37.1546 267.5,33.5 Z"/></g>
<g><path style="opacity:0.991" fill="#000000" d="M 197.5,215.5 C 229.835,215.333 262.168,215.5 294.5,216C 361.693,224.909 392.36,263.076 386.5,330.5C 314.5,330.5 242.5,330.5 170.5,330.5C 170.5,487.833 170.5,645.167 170.5,802.5C 280.167,802.333 389.834,802.5 499.5,803C 525.678,831.344 552.011,859.51 578.5,887.5C 608.984,859.517 639.317,831.35 669.5,803C 732.499,802.5 795.499,802.333 858.5,802.5C 858.333,730.166 858.5,657.833 859,585.5C 859.918,560.156 866.584,536.489 879,514.5C 897.007,488.743 921.84,475.409 953.5,474.5C 953.667,579.834 953.5,685.167 953,790.5C 947.339,845.339 920.506,886.172 872.5,913C 853.986,922.545 834.319,927.879 813.5,929C 609.167,929.667 404.833,929.667 200.5,929C 156.573,925.289 120.739,906.456 93,872.5C 74.8324,849.346 64.499,823.013 62,793.5C 61.3333,645.833 61.3333,498.167 62,350.5C 67.2743,302.765 89.7743,265.598 129.5,239C 150.36,225.659 173.027,217.825 197.5,215.5 Z"/></g>
<g><path style="opacity:0.991" fill="#000000" d="M 730.5,215.5 C 759.502,215.333 788.502,215.5 817.5,216C 861.137,220.561 896.303,240.061 923,274.5C 938.883,294.798 948.55,317.798 952,343.5C 953.319,359.136 953.819,374.803 953.5,390.5C 921.833,390.5 890.167,390.5 858.5,390.5C 859.847,360.672 846.18,341.838 817.5,334C 810.578,332.457 803.578,331.457 796.5,331C 774.503,330.5 752.503,330.333 730.5,330.5C 730.5,292.167 730.5,253.833 730.5,215.5 Z"/></g>
</svg>
