<?xml version="1.0" encoding="UTF-8"?>
<!DOCTYPE svg PUBLIC "-//W3C//DTD SVG 1.1//EN" "http://www.w3.org/Graphics/SVG/1.1/DTD/svg11.dtd">
<svg xmlns="http://www.w3.org/2000/svg" version="1.1" width="1000px" height="1000px" style="shape-rendering:geometricPrecision; text-rendering:geometricPrecision; image-rendering:optimizeQuality; fill-rule:evenodd; clip-rule:evenodd" xmlns:xlink="http://www.w3.org/1999/xlink">
<g><path style="opacity:0.992" fill="#000000" d="M 497.5,5.5 C 509.838,5.33346 522.171,5.50012 534.5,6C 554.454,9.72726 567.621,21.2273 574,40.5C 580.86,65.1107 573.86,84.7773 553,99.5C 552.167,126.173 552.333,152.84 553.5,179.5C 607.48,171.904 645.647,192.904 668,242.5C 671.41,249.98 674.243,257.647 676.5,265.5C 639.5,265.5 602.5,265.5 565.5,265.5C 579.511,386.096 592.677,506.763 605,627.5C 574.667,661.833 544.333,696.167 514,730.5C 484.667,697.167 455.333,663.833 426,630.5C 424.596,628.606 423.43,626.606 422.5,624.5C 436.273,504.88 449.606,385.213 462.5,265.5C 425.494,265.833 388.494,265.5 351.5,264.5C 359.314,238.016 373.314,215.516 393.5,197C 417.966,179.739 444.966,173.906 474.5,179.5C 475.667,152.84 475.833,126.173 475,99.5C 448.645,78.0604 444.645,53.0604 463,24.5C 472.062,13.556 483.562,7.22262 497.5,5.5 Z"/></g>
<g><path style="opacity:0.994" fill="#000000" d="M 136.5,213.5 C 175.819,252.969 220.152,285.802 269.5,312C 301.981,326.787 335.981,335.954 371.5,339.5C 363.298,445.422 354.631,551.255 345.5,657C 401.361,713.194 457.527,769.028 514,824.5C 570,769.167 626,713.833 682,658.5C 674.162,552.449 665.662,446.449 656.5,340.5C 694.262,335.968 730.262,325.468 764.5,309C 811.417,283.607 853.584,251.774 891,213.5C 908.937,325.806 908.937,438.139 891,550.5C 865.178,639.462 826.512,722.128 775,798.5C 709.479,892.11 622.479,957.11 514,993.5C 420.766,962.237 342.766,908.903 280,833.5C 224.798,764.126 182.798,687.126 154,602.5C 147.93,584.957 142.263,567.29 137,549.5C 119.357,437.512 119.19,325.512 136.5,213.5 Z"/></g>
</svg>
